<svg width="30" height="30" viewBox="0 0 30 30" fill="none" xmlns="http://www.w3.org/2000/svg">
<g clip-path="url(#clip0)">
<path d="M27.7305 3.64799C24.7044 0.621895 19.7972 0.621895 16.7712 3.64799L1.70287 18.7162C-0.567622 20.9867 -0.567622 24.6657 1.70287 26.9362C3.57428 28.8076 6.39695 29.1098 8.60353 27.8952C8.83404 27.8836 9.06071 27.7964 9.23705 27.622L24.3053 12.5538C25.8183 11.0408 25.8183 8.58812 24.3053 7.07512C22.7923 5.56212 20.3397 5.56212 18.8267 7.07512L6.49768 19.404C6.11988 19.7818 6.11988 20.3959 6.49768 20.7737C6.87548 21.1515 7.4896 21.1515 7.86732 20.7737L20.1963 8.44476C20.9538 7.68728 22.1801 7.68728 22.9357 8.44476C23.6932 9.20225 23.6932 10.4285 22.9357 11.1841L8.55124 25.5685C7.03824 27.0815 4.5856 27.0815 3.07259 25.5685C1.55959 24.0555 1.55959 21.6028 3.07259 20.0898L18.1409 5.01763C20.4114 2.74714 24.0903 2.74714 26.3609 5.01763C28.6313 7.28811 28.6313 10.967 26.3609 13.2376L12.6622 26.9362C12.2844 27.314 12.2844 27.9282 12.6622 28.3059C13.04 28.6837 13.6541 28.6837 14.0319 28.3059L27.7305 14.6072C30.7566 11.5812 30.7566 6.67408 27.7305 3.64799Z" fill="#381E52"/>
</g>
<defs>
<clipPath id="clip0">
<rect width="30" height="30" fill="white"/>
</clipPath>
</defs>
</svg>
